<svg width="94" height="23" viewBox="0 0 94 23" fill="none" xmlns="http://www.w3.org/2000/svg">
<path d="M4.58885 5.97626C5.29809 5.97626 6.02849 6.06988 6.78007 6.25712C7.53164 6.43397 8.21971 6.66802 8.84426 6.95929C9.46881 7.24016 9.98221 7.55744 10.3845 7.91113C10.7867 8.26481 10.9878 8.6081 10.9878 8.94098C10.9878 9.10742 10.9137 9.29466 10.7655 9.50271C10.6173 9.70036 10.4374 9.89281 10.2257 10.0801C10.014 10.2569 9.78108 10.4077 9.52703 10.5326C9.28356 10.647 9.06655 10.7042 8.87601 10.7042C8.62196 10.7042 8.33615 10.6002 8.01858 10.3921C7.7116 10.1841 7.36757 9.95522 6.98649 9.70556C6.61599 9.4455 6.20845 9.21144 5.76385 9.00339C5.31926 8.79534 4.83761 8.69132 4.31892 8.69132C3.98018 8.69132 3.69966 8.77454 3.47736 8.94098C3.26565 9.09702 3.1598 9.32067 3.1598 9.61194C3.1598 9.872 3.28682 10.1373 3.54088 10.4077C3.79493 10.6678 4.12838 10.9383 4.54122 11.2191C4.96464 11.5 5.44099 11.7965 5.97027 12.1085C6.49955 12.4206 7.03941 12.7535 7.58986 13.1072C8.1509 13.4609 8.69606 13.8458 9.22534 14.2619C9.75462 14.678 10.2257 15.1305 10.6385 15.6194C11.0619 16.1083 11.4007 16.6441 11.6547 17.2266C11.9088 17.7987 12.0358 18.4229 12.0358 19.0991C12.0358 19.6816 11.93 20.2121 11.7182 20.6906C11.5065 21.1692 11.2048 21.5801 10.8132 21.9233C10.4215 22.2666 9.95574 22.5319 9.41588 22.7191C8.87601 22.9064 8.28322 23 7.6375 23C6.82241 23 6.07083 22.8752 5.38277 22.6255C4.69471 22.3863 4.10191 22.0534 3.60439 21.6269C3.10687 21.2004 2.7152 20.6906 2.42939 20.0977C2.15417 19.5047 2.01655 18.8546 2.01655 18.1472C2.01655 17.2318 2.18063 16.566 2.50878 16.1499C2.84752 15.7338 3.3768 15.5258 4.09662 15.5258C4.54122 15.5258 4.89583 15.609 5.16047 15.7754C5.42511 15.9419 5.55743 16.1447 5.55743 16.384C5.55743 16.5088 5.53626 16.6389 5.49392 16.7741C5.45158 16.8989 5.40394 17.0341 5.35101 17.1798C5.30867 17.315 5.26633 17.4607 5.22399 17.6167C5.19223 17.7727 5.17635 17.9288 5.17635 18.0848C5.17635 18.3553 5.23986 18.6153 5.36689 18.865C5.49392 19.1147 5.66329 19.3331 5.875 19.5204C6.0973 19.718 6.35135 19.874 6.63716 19.9885C6.92297 20.1029 7.22466 20.1601 7.54223 20.1601C8.38908 20.1601 8.8125 19.8168 8.8125 19.1303C8.8125 18.5893 8.5955 18.0796 8.16149 17.6011C7.72748 17.1122 7.18232 16.6389 6.52601 16.1811C5.86971 15.713 5.16047 15.2449 4.39831 14.7768C3.64673 14.3087 2.94279 13.8198 2.28649 13.31C1.63018 12.8003 1.08502 12.2594 0.651013 11.6872C0.217005 11.1047 0 10.4754 0 9.79919C0 9.23745 0.116441 8.72252 0.349324 8.25441C0.592793 7.7863 0.920946 7.3858 1.33378 7.05292C1.74662 6.70963 2.22827 6.44437 2.77872 6.25712C3.33975 6.06988 3.94313 5.97626 4.58885 5.97626Z" fill="black"/>
<path d="M13.5601 19.2083C13.5601 18.3033 13.5337 17.3202 13.4807 16.2592C13.4278 15.1981 13.359 14.1266 13.2743 13.0448C13.2002 11.9525 13.1155 10.8863 13.0203 9.846C12.9356 8.80574 12.8509 7.85391 12.7662 6.9905C12.6921 6.12709 12.6286 5.38331 12.5757 4.75916C12.5227 4.13501 12.4963 3.6981 12.4963 3.44844C12.4963 3.03234 12.6551 2.71506 12.9726 2.49661C13.2902 2.27815 13.7507 2.16893 14.3541 2.16893C14.6187 2.16893 14.841 2.19493 15.0209 2.24695C15.2115 2.29896 15.365 2.38738 15.4814 2.51221C15.5979 2.63704 15.6878 2.80348 15.7514 3.01153C15.8255 3.20918 15.8784 3.45884 15.9101 3.76052C15.9525 4.17662 15.9895 4.62393 16.0213 5.10244C16.053 5.57056 16.0848 6.10629 16.1166 6.70963C16.1589 7.31298 16.2012 7.99435 16.2436 8.75373C16.2859 9.51312 16.3389 10.3869 16.4024 11.3752C16.4024 11.5208 16.4288 11.6248 16.4818 11.6872C16.5347 11.7497 16.5929 11.7809 16.6564 11.7809C16.7729 11.7809 16.8787 11.6872 16.974 11.5C17.8738 9.70036 18.8159 8.32723 19.8003 7.3806C20.7848 6.42356 21.7428 5.94505 22.6743 5.94505C23.2248 5.94505 23.6588 6.10629 23.9764 6.42877C24.2939 6.75124 24.4527 7.18295 24.4527 7.72388C24.4527 8.30642 24.3204 8.84735 24.0557 9.34668C23.8017 9.8356 23.4788 10.2985 23.0872 10.7354C22.7061 11.1723 22.288 11.5832 21.8328 11.9681C21.3882 12.353 20.97 12.7275 20.5784 13.0916C20.1973 13.4557 19.8744 13.8146 19.6098 14.1683C19.3557 14.5115 19.2287 14.86 19.2287 15.2137C19.2287 15.5362 19.4193 15.8691 19.8003 16.2123C20.192 16.5452 20.753 16.8781 21.4834 17.211C22.2139 17.5335 23.1083 17.8507 24.1669 18.1628C25.2255 18.4645 26.4269 18.7558 27.7713 19.0366C27.983 19.0886 28.1312 19.1719 28.2159 19.2863C28.3111 19.4007 28.3588 19.5516 28.3588 19.7388C28.3588 19.9677 28.3059 20.2017 28.2 20.441C28.0941 20.6906 27.9618 20.9143 27.803 21.1119C27.6443 21.32 27.4643 21.4864 27.2632 21.6113C27.0726 21.7465 26.8874 21.8141 26.7074 21.8141C26.3475 21.8141 25.9188 21.7673 25.4213 21.6737C24.9238 21.5801 24.3839 21.45 23.8017 21.2836C23.2301 21.1275 22.6373 20.9403 22.0233 20.7218C21.4093 20.5138 20.8113 20.2849 20.2291 20.0353C19.6574 19.796 19.1123 19.5464 18.5936 19.2863C18.0855 19.0158 17.6462 18.7506 17.2757 18.4905C17.1592 18.4281 17.064 18.3761 16.9899 18.3345C16.9264 18.2929 16.8681 18.272 16.8152 18.272C16.7517 18.272 16.7146 18.2981 16.7041 18.3501C16.6935 18.3917 16.6882 18.4853 16.6882 18.6309C16.6882 18.995 16.6564 19.2915 16.5929 19.5204C16.54 19.7492 16.4447 19.9261 16.3071 20.0509C16.1695 20.1861 15.9789 20.2797 15.7355 20.3318C15.492 20.3838 15.1903 20.4098 14.8304 20.4098C14.3541 20.4098 14.0206 20.3213 13.8301 20.1445C13.6501 19.9677 13.5601 19.6556 13.5601 19.2083Z" fill="black"/>
<path d="M37.2189 12.8419C37.2189 11.1983 37.42 9.93442 37.8223 9.0502C38.2245 8.16599 38.8015 7.72388 39.553 7.72388C40.7492 7.72388 41.3473 8.73813 41.3473 10.7666C41.3473 11.4844 41.305 12.1606 41.2203 12.7951C41.1462 13.4297 41.035 14.0434 40.8868 14.6364C40.8657 14.7196 40.8498 14.7976 40.8392 14.8704C40.8286 14.9432 40.8233 15.0109 40.8233 15.0733C40.8233 15.2917 40.8657 15.4842 40.9503 15.6506C41.4796 16.9717 42.4588 17.6323 43.8878 17.6323C44.3959 17.6323 44.8723 17.5231 45.3169 17.3046C45.7615 17.0862 46.1479 16.7897 46.476 16.4152C46.8042 16.0303 47.0582 15.583 47.2382 15.0733C47.4287 14.5635 47.524 14.0122 47.524 13.4193C47.524 12.7535 47.4446 12.2022 47.2858 11.7653C47.127 11.318 46.9524 10.9383 46.7618 10.6262C46.5713 10.3037 46.3966 10.0124 46.2378 9.75237C46.0791 9.48191 45.9997 9.18024 45.9997 8.84735C45.9997 8.69132 46.0685 8.53008 46.2061 8.36364C46.3543 8.18679 46.5342 8.02555 46.7459 7.87992C46.9682 7.73428 47.2064 7.61465 47.4605 7.52103C47.7251 7.42741 47.9739 7.3806 48.2068 7.3806C48.5137 7.3806 48.8154 7.54704 49.1118 7.87992C49.4188 8.2128 49.6887 8.64971 49.9216 9.19064C50.1651 9.72117 50.3556 10.3297 50.4932 11.0163C50.6414 11.7029 50.7155 12.3946 50.7155 13.0916C50.7155 14.1006 50.525 15.0525 50.1439 15.9471C49.7628 16.8417 49.2441 17.6271 48.5878 18.3033C47.9315 18.9794 47.1641 19.5152 46.2855 19.9104C45.4175 20.3057 44.4965 20.5034 43.5226 20.5034C42.697 20.5034 41.9613 20.3578 41.3155 20.0665C40.6804 19.7856 40.0929 19.2863 39.553 18.5685C39.4684 18.4333 39.3837 18.3397 39.299 18.2877C39.2143 18.2356 39.1296 18.2096 39.0449 18.2096C38.9391 18.2096 38.8438 18.2356 38.7591 18.2877C38.6744 18.3397 38.5845 18.4333 38.4892 18.5685C37.7694 19.4943 36.9966 20.1549 36.1709 20.5502C35.3559 20.9455 34.4561 21.1431 33.4716 21.1431C32.3813 21.1431 31.3968 20.8467 30.5182 20.2537C29.6502 19.6712 28.9092 18.839 28.2953 17.7571C27.6813 16.6753 27.2102 15.3645 26.8821 13.825C26.5539 12.275 26.3899 10.543 26.3899 8.6289C26.3899 7.84871 26.4216 7.20375 26.4851 6.69403C26.5486 6.1739 26.6651 5.7682 26.8345 5.47693C27.0038 5.17526 27.2261 4.96721 27.5014 4.85278C27.7766 4.72795 28.1312 4.66554 28.5652 4.66554C29.0204 4.66554 29.3485 4.75396 29.5497 4.9308C29.7614 5.09724 29.8672 5.38851 29.8672 5.80461C29.8672 6.12709 29.8355 6.49118 29.772 6.89688C29.7084 7.29218 29.6767 7.63546 29.6767 7.92673C29.6767 9.4351 29.7825 10.8238 29.9943 12.0929C30.2166 13.3621 30.5182 14.4543 30.8993 15.3697C31.291 16.2852 31.7515 16.9977 32.2807 17.5075C32.8206 18.0172 33.4134 18.272 34.0591 18.272C35.4988 18.272 36.5626 17.5491 37.2507 16.1031C37.3142 15.9887 37.3565 15.8847 37.3777 15.791C37.3989 15.687 37.4095 15.5778 37.4095 15.4634C37.4095 15.401 37.4095 15.3385 37.4095 15.2761C37.4095 15.2033 37.3989 15.1253 37.3777 15.0421C37.3248 14.6468 37.2824 14.2723 37.2507 13.9186C37.2295 13.5545 37.2189 13.1956 37.2189 12.8419Z" fill="black"/>
<path d="M54.7169 3.60448C54.4099 3.60448 54.1188 3.56287 53.8436 3.47965C53.5789 3.38602 53.3461 3.26119 53.1449 3.10516C52.9544 2.93872 52.8009 2.74627 52.6845 2.52782C52.568 2.30936 52.5098 2.0701 52.5098 1.81004C52.5098 1.37313 52.6845 1.01945 53.0338 0.748982C53.3937 0.478517 53.87 0.343284 54.4628 0.343284C54.7381 0.343284 55.0027 0.395296 55.2568 0.499322C55.5108 0.592944 55.7331 0.722976 55.9236 0.889417C56.1248 1.05586 56.2836 1.25351 56.4 1.48236C56.5164 1.70081 56.5747 1.92967 56.5747 2.16893C56.5747 2.61624 56.4053 2.96992 56.0666 3.22999C55.7384 3.47965 55.2885 3.60448 54.7169 3.60448ZM52.5416 8.36364C52.5416 7.99955 52.7003 7.70308 53.0179 7.47422C53.3461 7.23496 53.7748 7.11533 54.3041 7.11533C55.2568 7.11533 55.7649 7.43781 55.8284 8.08277C55.8707 8.53008 55.9131 9.0346 55.9554 9.59634C56.0083 10.1581 56.056 10.7562 56.0983 11.3908C56.1512 12.0149 56.1936 12.6651 56.2253 13.3412C56.2677 14.007 56.3047 14.6676 56.3365 15.3229C56.3682 15.9679 56.3947 16.592 56.4159 17.1954C56.437 17.7987 56.4476 18.3501 56.4476 18.8494C56.4476 19.3695 56.2571 19.7596 55.876 20.0197C55.5055 20.2797 54.9604 20.4098 54.2405 20.4098C53.9124 20.4098 53.653 20.3318 53.4625 20.1757C53.2825 20.0301 53.1926 19.8116 53.1926 19.5204C53.1926 18.0848 53.1555 16.7429 53.0814 15.4946C53.0179 14.2359 52.9438 13.1176 52.8591 12.1398C52.785 11.1619 52.7109 10.3505 52.6368 9.70556C52.5733 9.0502 52.5416 8.60289 52.5416 8.36364Z" fill="black"/>
<path d="M59.6551 6.92809C59.6551 6.77205 59.7239 6.62121 59.8615 6.47558C59.9991 6.31954 60.1791 6.18431 60.4014 6.06988C60.6236 5.94505 60.8724 5.84622 61.1476 5.77341C61.4334 5.69019 61.7193 5.64858 62.0051 5.64858C62.1639 5.64858 62.2962 5.69019 62.402 5.77341C62.5185 5.85663 62.619 6.01787 62.7037 6.25712C62.7884 6.48598 62.8625 6.81366 62.926 7.24016C63.0001 7.65626 63.0689 8.2024 63.1324 8.87856C63.1748 9.08661 63.2118 9.24785 63.2436 9.36228C63.2859 9.4663 63.3389 9.51832 63.4024 9.51832C63.4976 9.51832 63.5929 9.35708 63.6882 9.0346C64.4609 6.83967 65.5777 5.7422 67.0385 5.7422C67.716 5.7422 68.33 5.95025 68.8804 6.36635C69.4414 6.78245 69.9601 7.46382 70.4365 8.41045C70.9234 9.34668 71.3839 10.5846 71.8179 12.1242C72.2519 13.6533 72.6859 15.5414 73.1199 17.7883C73.1411 17.9028 73.157 18.0068 73.1676 18.1004C73.1782 18.194 73.1834 18.2825 73.1834 18.3657C73.1834 18.6049 73.1252 18.813 73.0088 18.9898C72.9029 19.1563 72.76 19.2967 72.5801 19.4111C72.4001 19.5152 72.199 19.5932 71.9767 19.6452C71.7544 19.7076 71.5321 19.7388 71.3098 19.7388C70.8652 19.7388 70.5423 19.692 70.3412 19.5984C70.1507 19.5047 70.0289 19.3279 69.976 19.0678C69.669 17.4867 69.3673 16.0823 69.0709 14.8548C68.7851 13.6273 68.4993 12.5975 68.2135 11.7653C67.9383 10.9227 67.6631 10.2829 67.3878 9.846C67.1126 9.40909 66.8374 9.19064 66.5622 9.19064C66.2869 9.19064 66.0276 9.36228 65.7841 9.70556C65.5512 10.0384 65.3236 10.5638 65.1013 11.2815C64.8791 11.9993 64.662 12.9095 64.4503 14.0122C64.2492 15.1149 64.0534 16.4308 63.8628 17.96C63.8099 18.3761 63.5982 18.709 63.2277 18.9586C62.8572 19.2083 62.3862 19.3331 61.8145 19.3331C61.4334 19.3331 61.1423 19.2551 60.9412 19.0991C60.7401 18.943 60.6289 18.7298 60.6078 18.4593C60.5125 16.2956 60.4066 14.5167 60.2902 13.1228C60.1843 11.7185 60.0838 10.595 59.9885 9.75237C59.8932 8.89937 59.8139 8.26481 59.7503 7.84871C59.6868 7.43261 59.6551 7.12574 59.6551 6.92809Z" fill="black"/>
<path d="M76.3274 1.49796C76.3274 0.946631 76.4861 0.561737 76.8037 0.343284C77.1213 0.114428 77.6453 0 78.3757 0C78.6403 0 78.8626 0.0260063 79.0426 0.078019C79.2331 0.119629 79.3919 0.202849 79.5189 0.32768C79.6565 0.45251 79.7624 0.618951 79.8365 0.827001C79.9212 1.02465 79.99 1.27951 80.0429 1.59159C80.1699 2.55902 80.3075 3.55767 80.4557 4.58752C80.6145 5.61737 80.7786 6.65242 80.948 7.69267C81.0115 8.16079 81.2602 8.39484 81.6943 8.39484C81.8107 8.39484 82.0012 8.38444 82.2659 8.36364C82.5411 8.33243 82.864 8.30122 83.2345 8.27001C83.605 8.2284 84.0019 8.18679 84.4253 8.14518C84.8593 8.10357 85.2881 8.06716 85.7115 8.03596C86.1455 7.99435 86.553 7.96314 86.9341 7.94233C87.3258 7.91113 87.6698 7.89552 87.9662 7.89552C88.1991 7.89552 88.3843 7.94233 88.522 8.03596C88.6596 8.11918 88.7654 8.23361 88.8395 8.37924C88.9242 8.51447 88.9771 8.67051 88.9983 8.84735C89.0301 9.01379 89.0459 9.18544 89.0459 9.36228C89.0459 9.51832 89.0142 9.67956 88.9507 9.846C88.8978 10.0124 88.8184 10.1633 88.7125 10.2985C88.6172 10.4233 88.4955 10.5274 88.3473 10.6106C88.1991 10.6938 88.0297 10.7354 87.8392 10.7354C86.9182 10.7354 85.9867 10.7666 85.0446 10.829C84.1131 10.8811 83.1815 10.9539 82.25 11.0475C81.7737 11.1099 81.5355 11.344 81.5355 11.7497C81.5355 11.7809 81.5408 11.8225 81.5514 11.8745C81.5619 11.9161 81.5672 11.9525 81.5672 11.9837C81.6943 12.8887 81.8107 13.7365 81.9166 14.5271C82.033 15.3177 82.1283 16.0251 82.2024 16.6493C82.287 17.263 82.3506 17.7779 82.3929 18.194C82.4458 18.5997 82.4723 18.8702 82.4723 19.0054C82.4723 19.3799 82.4352 19.692 82.3611 19.9417C82.287 20.2017 82.1653 20.4098 81.9959 20.5658C81.8266 20.7322 81.599 20.8467 81.3132 20.9091C81.0379 20.9819 80.6886 21.0183 80.2652 21.0183C79.863 21.0183 79.5666 20.9247 79.376 20.7374C79.1855 20.5502 79.0796 20.2641 79.0584 19.8792C78.9949 18.6517 78.8944 17.419 78.7568 16.1811C78.6191 14.9328 78.4604 13.6897 78.2804 12.4518C78.1851 12.0045 77.947 11.7809 77.5659 11.7809C77.5341 11.7809 77.4971 11.7861 77.4547 11.7965C77.4124 11.8069 77.3753 11.8121 77.3436 11.8121C76.6873 11.9577 76.068 12.1033 75.4858 12.249C74.9036 12.3946 74.3584 12.5507 73.8503 12.7171C73.5645 12.8107 73.3105 12.8783 73.0882 12.9199C72.8659 12.9512 72.6647 12.9668 72.4848 12.9668C72.2413 12.9668 72.0614 12.8627 71.9449 12.6547C71.8285 12.4362 71.7703 12.1658 71.7703 11.8433C71.7703 11.7289 71.7809 11.5988 71.802 11.4532C71.8232 11.2972 71.8655 11.1463 71.9291 11.0007C71.982 10.8446 72.0667 10.7042 72.1831 10.5794C72.289 10.4441 72.4372 10.3349 72.6277 10.2517C73.0723 10.0749 73.6651 9.89281 74.4061 9.70556C75.1471 9.50792 75.9833 9.32587 76.9149 9.15943C77.1266 9.10742 77.2907 9.0242 77.4071 8.90977C77.5341 8.78494 77.5976 8.60289 77.5976 8.36364C77.5976 8.31162 77.5976 8.25961 77.5976 8.2076C77.5976 8.14518 77.5871 8.08277 77.5659 8.02035C77.3965 7.06332 77.2324 6.19471 77.0736 5.41452C76.9255 4.62393 76.7931 3.94776 76.6767 3.38602C76.5708 2.82429 76.4861 2.38218 76.4226 2.0597C76.3591 1.73722 76.3274 1.54998 76.3274 1.49796Z" fill="black"/>
<path d="M92.1422 19.2395C91.8353 19.2395 91.5441 19.1927 91.2689 19.0991C91.0043 19.0054 90.7714 18.8806 90.5703 18.7246C90.3691 18.5581 90.2104 18.3657 90.0939 18.1472C89.9881 17.9288 89.9351 17.6947 89.9351 17.445C89.9351 17.0081 90.1098 16.6545 90.4591 16.384C90.819 16.1135 91.2901 15.9783 91.8723 15.9783C92.1475 15.9783 92.4122 16.0303 92.6662 16.1343C92.9309 16.228 93.1584 16.358 93.349 16.5244C93.5501 16.6909 93.7089 16.8833 93.8253 17.1018C93.9418 17.3202 94 17.5491 94 17.7883C94 18.246 93.8306 18.6049 93.4919 18.865C93.1637 19.1147 92.7139 19.2395 92.1422 19.2395Z" fill="black"/>
</svg>
