<svg width="278" height="70" viewBox="0 0 278 70" fill="none" xmlns="http://www.w3.org/2000/svg">
<path d="M13.5625 18.3125C15.6562 18.3125 17.8125 18.5938 20.0312 19.1562C22.25 19.6875 24.2812 20.3906 26.125 21.2656C27.9688 22.1094 29.4844 23.0625 30.6719 24.125C31.8594 25.1875 32.4531 26.2188 32.4531 27.2188C32.4531 27.7188 32.2344 28.2812 31.7969 28.9062C31.3594 29.5 30.8281 30.0781 30.2031 30.6406C29.5781 31.1719 28.8906 31.625 28.1406 32C27.4219 32.3438 26.7812 32.5156 26.2188 32.5156C25.4688 32.5156 24.625 32.2031 23.6875 31.5781C22.7812 30.9531 21.7656 30.2656 20.6406 29.5156C19.5469 28.7344 18.3438 28.0312 17.0312 27.4062C15.7188 26.7812 14.2969 26.4688 12.7656 26.4688C11.7656 26.4688 10.9375 26.7188 10.2812 27.2188C9.65625 27.6875 9.34375 28.3594 9.34375 29.2344C9.34375 30.0156 9.71875 30.8125 10.4688 31.625C11.2188 32.4062 12.2031 33.2188 13.4219 34.0625C14.6719 34.9062 16.0781 35.7969 17.6406 36.7344C19.2031 37.6719 20.7969 38.6719 22.4219 39.7344C24.0781 40.7969 25.6875 41.9531 27.25 43.2031C28.8125 44.4531 30.2031 45.8125 31.4219 47.2812C32.6719 48.75 33.6719 50.3594 34.4219 52.1094C35.1719 53.8281 35.5469 55.7031 35.5469 57.7344C35.5469 59.4844 35.2344 61.0781 34.6094 62.5156C33.9844 63.9531 33.0938 65.1875 31.9375 66.2188C30.7812 67.25 29.4062 68.0469 27.8125 68.6094C26.2188 69.1719 24.4688 69.4531 22.5625 69.4531C20.1562 69.4531 17.9375 69.0781 15.9062 68.3281C13.875 67.6094 12.125 66.6094 10.6562 65.3281C9.1875 64.0469 8.03125 62.5156 7.1875 60.7344C6.375 58.9531 5.96875 57 5.96875 54.875C5.96875 52.125 6.45312 50.125 7.42188 48.875C8.42188 47.625 9.98438 47 12.1094 47C13.4219 47 14.4688 47.25 15.25 47.75C16.0312 48.25 16.4219 48.8594 16.4219 49.5781C16.4219 49.9531 16.3594 50.3438 16.2344 50.75C16.1094 51.125 15.9688 51.5312 15.8125 51.9688C15.6875 52.375 15.5625 52.8125 15.4375 53.2812C15.3438 53.75 15.2969 54.2188 15.2969 54.6875C15.2969 55.5 15.4844 56.2812 15.8594 57.0312C16.2344 57.7812 16.7344 58.4375 17.3594 59C18.0156 59.5938 18.7656 60.0625 19.6094 60.4062C20.4531 60.75 21.3438 60.9219 22.2812 60.9219C24.7812 60.9219 26.0312 59.8906 26.0312 57.8281C26.0312 56.2031 25.3906 54.6719 24.1094 53.2344C22.8281 51.7656 21.2188 50.3438 19.2812 48.9688C17.3438 47.5625 15.25 46.1562 13 44.75C10.7812 43.3438 8.70312 41.875 6.76562 40.3438C4.82812 38.8125 3.21875 37.1875 1.9375 35.4688C0.65625 33.7188 0.015625 31.8281 0.015625 29.7969C0.015625 28.1094 0.359375 26.5625 1.04688 25.1562C1.76562 23.75 2.73438 22.5469 3.95312 21.5469C5.17188 20.5156 6.59375 19.7188 8.21875 19.1562C9.875 18.5938 11.6562 18.3125 13.5625 18.3125Z" fill="white"/>
<path d="M40.0469 58.0625C40.0469 55.3438 39.9688 52.3906 39.8125 49.2031C39.6562 46.0156 39.4531 42.7969 39.2031 39.5469C38.9844 36.2656 38.7344 33.0625 38.4531 29.9375C38.2031 26.8125 37.9531 23.9531 37.7031 21.3594C37.4844 18.7656 37.2969 16.5312 37.1406 14.6562C36.9844 12.7812 36.9062 11.4688 36.9062 10.7188C36.9062 9.46875 37.375 8.51562 38.3125 7.85938C39.25 7.20312 40.6094 6.875 42.3906 6.875C43.1719 6.875 43.8281 6.95312 44.3594 7.10938C44.9219 7.26562 45.375 7.53125 45.7188 7.90625C46.0625 8.28125 46.3281 8.78125 46.5156 9.40625C46.7344 10 46.8906 10.75 46.9844 11.6562C47.1094 12.9062 47.2188 14.25 47.3125 15.6875C47.4062 17.0938 47.5 18.7031 47.5938 20.5156C47.7188 22.3281 47.8438 24.375 47.9688 26.6562C48.0938 28.9375 48.25 31.5625 48.4375 34.5312C48.4375 34.9688 48.5156 35.2812 48.6719 35.4688C48.8281 35.6562 49 35.75 49.1875 35.75C49.5312 35.75 49.8438 35.4688 50.125 34.9062C52.7812 29.5 55.5625 25.375 58.4688 22.5312C61.375 19.6562 64.2031 18.2188 66.9531 18.2188C68.5781 18.2188 69.8594 18.7031 70.7969 19.6719C71.7344 20.6406 72.2031 21.9375 72.2031 23.5625C72.2031 25.3125 71.8125 26.9375 71.0312 28.4375C70.2812 29.9062 69.3281 31.2969 68.1719 32.6094C67.0469 33.9219 65.8125 35.1562 64.4688 36.3125C63.1562 37.4688 61.9219 38.5938 60.7656 39.6875C59.6406 40.7812 58.6875 41.8594 57.9062 42.9219C57.1562 43.9531 56.7812 45 56.7812 46.0625C56.7812 47.0312 57.3438 48.0312 58.4688 49.0625C59.625 50.0625 61.2812 51.0625 63.4375 52.0625C65.5938 53.0312 68.2344 53.9844 71.3594 54.9219C74.4844 55.8281 78.0312 56.7031 82 57.5469C82.625 57.7031 83.0625 57.9531 83.3125 58.2969C83.5938 58.6406 83.7344 59.0938 83.7344 59.6562C83.7344 60.3438 83.5781 61.0469 83.2656 61.7656C82.9531 62.5156 82.5625 63.1875 82.0938 63.7812C81.625 64.4062 81.0938 64.9062 80.5 65.2812C79.9375 65.6875 79.3906 65.8906 78.8594 65.8906C77.7969 65.8906 76.5312 65.75 75.0625 65.4688C73.5938 65.1875 72 64.7969 70.2812 64.2969C68.5938 63.8281 66.8438 63.2656 65.0312 62.6094C63.2188 61.9844 61.4531 61.2969 59.7344 60.5469C58.0469 59.8281 56.4375 59.0781 54.9062 58.2969C53.4062 57.4844 52.1094 56.6875 51.0156 55.9062C50.6719 55.7188 50.3906 55.5625 50.1719 55.4375C49.9844 55.3125 49.8125 55.25 49.6562 55.25C49.4688 55.25 49.3594 55.3281 49.3281 55.4844C49.2969 55.6094 49.2812 55.8906 49.2812 56.3281C49.2812 57.4219 49.1875 58.3125 49 59C48.8438 59.6875 48.5625 60.2188 48.1562 60.5938C47.75 61 47.1875 61.2812 46.4688 61.4375C45.75 61.5938 44.8594 61.6719 43.7969 61.6719C42.3906 61.6719 41.4062 61.4062 40.8438 60.875C40.3125 60.3438 40.0469 59.4062 40.0469 58.0625Z" fill="white"/>
<path d="M109.891 38.9375C109.891 34 110.484 30.2031 111.672 27.5469C112.859 24.8906 114.562 23.5625 116.781 23.5625C120.312 23.5625 122.078 26.6094 122.078 32.7031C122.078 34.8594 121.953 36.8906 121.703 38.7969C121.484 40.7031 121.156 42.5469 120.719 44.3281C120.656 44.5781 120.609 44.8125 120.578 45.0312C120.547 45.25 120.531 45.4531 120.531 45.6406C120.531 46.2969 120.656 46.875 120.906 47.375C122.469 51.3438 125.359 53.3281 129.578 53.3281C131.078 53.3281 132.484 53 133.797 52.3438C135.109 51.6875 136.25 50.7969 137.219 49.6719C138.188 48.5156 138.938 47.1719 139.469 45.6406C140.031 44.1094 140.312 42.4531 140.312 40.6719C140.312 38.6719 140.078 37.0156 139.609 35.7031C139.141 34.3594 138.625 33.2188 138.062 32.2812C137.5 31.3125 136.984 30.4375 136.516 29.6562C136.047 28.8438 135.812 27.9375 135.812 26.9375C135.812 26.4688 136.016 25.9844 136.422 25.4844C136.859 24.9531 137.391 24.4688 138.016 24.0312C138.672 23.5938 139.375 23.2344 140.125 22.9531C140.906 22.6719 141.641 22.5312 142.328 22.5312C143.234 22.5312 144.125 23.0312 145 24.0312C145.906 25.0312 146.703 26.3438 147.391 27.9688C148.109 29.5625 148.672 31.3906 149.078 33.4531C149.516 35.5156 149.734 37.5938 149.734 39.6875C149.734 42.7188 149.172 45.5781 148.047 48.2656C146.922 50.9531 145.391 53.3125 143.453 55.3438C141.516 57.375 139.25 58.9844 136.656 60.1719C134.094 61.3594 131.375 61.9531 128.5 61.9531C126.062 61.9531 123.891 61.5156 121.984 60.6406C120.109 59.7969 118.375 58.2969 116.781 56.1406C116.531 55.7344 116.281 55.4531 116.031 55.2969C115.781 55.1406 115.531 55.0625 115.281 55.0625C114.969 55.0625 114.688 55.1406 114.438 55.2969C114.188 55.4531 113.922 55.7344 113.641 56.1406C111.516 58.9219 109.234 60.9062 106.797 62.0938C104.391 63.2812 101.734 63.875 98.8281 63.875C95.6094 63.875 92.7031 62.9844 90.1094 61.2031C87.5469 59.4531 85.3594 56.9531 83.5469 53.7031C81.7344 50.4531 80.3438 46.5156 79.375 41.8906C78.4062 37.2344 77.9219 32.0312 77.9219 26.2812C77.9219 23.9375 78.0156 22 78.2031 20.4688C78.3906 18.9062 78.7344 17.6875 79.2344 16.8125C79.7344 15.9062 80.3906 15.2812 81.2031 14.9375C82.0156 14.5625 83.0625 14.375 84.3438 14.375C85.6875 14.375 86.6562 14.6406 87.25 15.1719C87.875 15.6719 88.1875 16.5469 88.1875 17.7969C88.1875 18.7656 88.0938 19.8594 87.9062 21.0781C87.7188 22.2656 87.625 23.2969 87.625 24.1719C87.625 28.7031 87.9375 32.875 88.5625 36.6875C89.2188 40.5 90.1094 43.7812 91.2344 46.5312C92.3906 49.2812 93.75 51.4219 95.3125 52.9531C96.9062 54.4844 98.6562 55.25 100.562 55.25C104.812 55.25 107.953 53.0781 109.984 48.7344C110.172 48.3906 110.297 48.0781 110.359 47.7969C110.422 47.4844 110.453 47.1562 110.453 46.8125C110.453 46.625 110.453 46.4375 110.453 46.25C110.453 46.0312 110.422 45.7969 110.359 45.5469C110.203 44.3594 110.078 43.2344 109.984 42.1719C109.922 41.0781 109.891 40 109.891 38.9375Z" fill="white"/>
<path d="M161.547 11.1875C160.641 11.1875 159.781 11.0625 158.969 10.8125C158.188 10.5312 157.5 10.1562 156.906 9.6875C156.344 9.1875 155.891 8.60938 155.547 7.95312C155.203 7.29688 155.031 6.57812 155.031 5.79688C155.031 4.48438 155.547 3.42188 156.578 2.60938C157.641 1.79688 159.047 1.39062 160.797 1.39062C161.609 1.39062 162.391 1.54688 163.141 1.85938C163.891 2.14062 164.547 2.53125 165.109 3.03125C165.703 3.53125 166.172 4.125 166.516 4.8125C166.859 5.46875 167.031 6.15625 167.031 6.875C167.031 8.21875 166.531 9.28125 165.531 10.0625C164.562 10.8125 163.234 11.1875 161.547 11.1875ZM155.125 25.4844C155.125 24.3906 155.594 23.5 156.531 22.8125C157.5 22.0938 158.766 21.7344 160.328 21.7344C163.141 21.7344 164.641 22.7031 164.828 24.6406C164.953 25.9844 165.078 27.5 165.203 29.1875C165.359 30.875 165.5 32.6719 165.625 34.5781C165.781 36.4531 165.906 38.4062 166 40.4375C166.125 42.4375 166.234 44.4219 166.328 46.3906C166.422 48.3281 166.5 50.2031 166.562 52.0156C166.625 53.8281 166.656 55.4844 166.656 56.9844C166.656 58.5469 166.094 59.7188 164.969 60.5C163.875 61.2812 162.266 61.6719 160.141 61.6719C159.172 61.6719 158.406 61.4375 157.844 60.9688C157.312 60.5312 157.047 59.875 157.047 59C157.047 54.6875 156.938 50.6562 156.719 46.9062C156.531 43.125 156.312 39.7656 156.062 36.8281C155.844 33.8906 155.625 31.4531 155.406 29.5156C155.219 27.5469 155.125 26.2031 155.125 25.4844Z" fill="white"/>
<path d="M176.125 21.1719C176.125 20.7031 176.328 20.25 176.734 19.8125C177.141 19.3438 177.672 18.9375 178.328 18.5938C178.984 18.2188 179.719 17.9219 180.531 17.7031C181.375 17.4531 182.219 17.3281 183.062 17.3281C183.531 17.3281 183.922 17.4531 184.234 17.7031C184.578 17.9531 184.875 18.4375 185.125 19.1562C185.375 19.8438 185.594 20.8281 185.781 22.1094C186 23.3594 186.203 25 186.391 27.0312C186.516 27.6562 186.625 28.1406 186.719 28.4844C186.844 28.7969 187 28.9531 187.188 28.9531C187.469 28.9531 187.75 28.4688 188.031 27.5C190.312 20.9062 193.609 17.6094 197.922 17.6094C199.922 17.6094 201.734 18.2344 203.359 19.4844C205.016 20.7344 206.547 22.7812 207.953 25.625C209.391 28.4375 210.75 32.1562 212.031 36.7812C213.312 41.375 214.594 47.0469 215.875 53.7969C215.938 54.1406 215.984 54.4531 216.016 54.7344C216.047 55.0156 216.062 55.2812 216.062 55.5312C216.062 56.25 215.891 56.875 215.547 57.4062C215.234 57.9062 214.812 58.3281 214.281 58.6719C213.75 58.9844 213.156 59.2188 212.5 59.375C211.844 59.5625 211.188 59.6562 210.531 59.6562C209.219 59.6562 208.266 59.5156 207.672 59.2344C207.109 58.9531 206.75 58.4219 206.594 57.6406C205.688 52.8906 204.797 48.6719 203.922 44.9844C203.078 41.2969 202.234 38.2031 201.391 35.7031C200.578 33.1719 199.766 31.25 198.953 29.9375C198.141 28.625 197.328 27.9688 196.516 27.9688C195.703 27.9688 194.938 28.4844 194.219 29.5156C193.531 30.5156 192.859 32.0938 192.203 34.25C191.547 36.4062 190.906 39.1406 190.281 42.4531C189.688 45.7656 189.109 49.7188 188.547 54.3125C188.391 55.5625 187.766 56.5625 186.672 57.3125C185.578 58.0625 184.188 58.4375 182.5 58.4375C181.375 58.4375 180.516 58.2031 179.922 57.7344C179.328 57.2656 179 56.625 178.938 55.8125C178.656 49.3125 178.344 43.9688 178 39.7812C177.688 35.5625 177.391 32.1875 177.109 29.6562C176.828 27.0938 176.594 25.1875 176.406 23.9375C176.219 22.6875 176.125 21.7656 176.125 21.1719Z" fill="white"/>
<path d="M225.344 4.85938C225.344 3.20312 225.812 2.04688 226.75 1.39062C227.688 0.703125 229.234 0.359375 231.391 0.359375C232.172 0.359375 232.828 0.4375 233.359 0.59375C233.922 0.71875 234.391 0.96875 234.766 1.34375C235.172 1.71875 235.484 2.21875 235.703 2.84375C235.953 3.4375 236.156 4.20312 236.312 5.14062C236.688 8.04688 237.094 11.0469 237.531 14.1406C238 17.2344 238.484 20.3438 238.984 23.4688C239.172 24.875 239.906 25.5781 241.188 25.5781C241.531 25.5781 242.094 25.5469 242.875 25.4844C243.688 25.3906 244.641 25.2969 245.734 25.2031C246.828 25.0781 248 24.9531 249.25 24.8281C250.531 24.7031 251.797 24.5938 253.047 24.5C254.328 24.375 255.531 24.2812 256.656 24.2188C257.812 24.125 258.828 24.0781 259.703 24.0781C260.391 24.0781 260.938 24.2188 261.344 24.5C261.75 24.75 262.062 25.0938 262.281 25.5312C262.531 25.9375 262.688 26.4062 262.75 26.9375C262.844 27.4375 262.891 27.9531 262.891 28.4844C262.891 28.9531 262.797 29.4375 262.609 29.9375C262.453 30.4375 262.219 30.8906 261.906 31.2969C261.625 31.6719 261.266 31.9844 260.828 32.2344C260.391 32.4844 259.891 32.6094 259.328 32.6094C256.609 32.6094 253.859 32.7031 251.078 32.8906C248.328 33.0469 245.578 33.2656 242.828 33.5469C241.422 33.7344 240.719 34.4375 240.719 35.6562C240.719 35.75 240.734 35.875 240.766 36.0312C240.797 36.1562 240.812 36.2656 240.812 36.3594C241.188 39.0781 241.531 41.625 241.844 44C242.188 46.375 242.469 48.5 242.688 50.375C242.938 52.2188 243.125 53.7656 243.25 55.0156C243.406 56.2344 243.484 57.0469 243.484 57.4531C243.484 58.5781 243.375 59.5156 243.156 60.2656C242.938 61.0469 242.578 61.6719 242.078 62.1406C241.578 62.6406 240.906 62.9844 240.062 63.1719C239.25 63.3906 238.219 63.5 236.969 63.5C235.781 63.5 234.906 63.2188 234.344 62.6562C233.781 62.0938 233.469 61.2344 233.406 60.0781C233.219 56.3906 232.922 52.6875 232.516 48.9688C232.109 45.2188 231.641 41.4844 231.109 37.7656C230.828 36.4219 230.125 35.75 229 35.75C228.906 35.75 228.797 35.7656 228.672 35.7969C228.547 35.8281 228.438 35.8438 228.344 35.8438C226.406 36.2812 224.578 36.7188 222.859 37.1562C221.141 37.5938 219.531 38.0625 218.031 38.5625C217.188 38.8438 216.438 39.0469 215.781 39.1719C215.125 39.2656 214.531 39.3125 214 39.3125C213.281 39.3125 212.75 39 212.406 38.375C212.062 37.7188 211.891 36.9062 211.891 35.9375C211.891 35.5938 211.922 35.2031 211.984 34.7656C212.047 34.2969 212.172 33.8438 212.359 33.4062C212.516 32.9375 212.766 32.5156 213.109 32.1406C213.422 31.7344 213.859 31.4062 214.422 31.1562C215.734 30.625 217.484 30.0781 219.672 29.5156C221.859 28.9219 224.328 28.375 227.078 27.875C227.703 27.7188 228.188 27.4688 228.531 27.125C228.906 26.75 229.094 26.2031 229.094 25.4844C229.094 25.3281 229.094 25.1719 229.094 25.0156C229.094 24.8281 229.062 24.6406 229 24.4531C228.5 21.5781 228.016 18.9688 227.547 16.625C227.109 14.25 226.719 12.2188 226.375 10.5312C226.062 8.84375 225.812 7.51562 225.625 6.54688C225.438 5.57812 225.344 5.01562 225.344 4.85938Z" fill="white"/>
<path d="M272.031 58.1562C271.125 58.1562 270.266 58.0156 269.453 57.7344C268.672 57.4531 267.984 57.0781 267.391 56.6094C266.797 56.1094 266.328 55.5312 265.984 54.875C265.672 54.2188 265.516 53.5156 265.516 52.7656C265.516 51.4531 266.031 50.3906 267.062 49.5781C268.125 48.7656 269.516 48.3594 271.234 48.3594C272.047 48.3594 272.828 48.5156 273.578 48.8281C274.359 49.1094 275.031 49.5 275.594 50C276.188 50.5 276.656 51.0781 277 51.7344C277.344 52.3906 277.516 53.0781 277.516 53.7969C277.516 55.1719 277.016 56.25 276.016 57.0312C275.047 57.7812 273.719 58.1562 272.031 58.1562Z" fill="white"/>
</svg>
